<svg fill="#7950F2" xmlns="http://www.w3.org/2000/svg"  viewBox="0 0 64 64" width="100px" height="100px"><path d="M 25.175781 0.714844 C 24.1875 0.714844 23.226563 1.007813 22.390625 1.570313 C 21.273438 2.328125 20.519531 3.472656 20.273438 4.796875 L 18.828125 12.5 C 14.765625 13.589844 12 15.265625 12 17.5 C 12 19.523438 14.261719 21.085938 17.699219 22.171875 C 16.800781 22.417969 16.167969 23.21875 15.921875 24.433594 C 15.722656 25.410156 15.785156 26.597656 16.105469 27.777344 C 16.636719 29.773438 17.761719 31.273438 18.984375 31.734375 C 19.402344 33.003906 19.949219 34.265625 20.597656 35.472656 L 8.253906 41.378906 C 4.453125 43.195313 2 47.089844 2 51.300781 L 2 59 C 2 60.652344 3.347656 62 5 62 L 59 62 C 60.652344 62 62 60.652344 62 59 L 62 51.300781 C 62 47.089844 59.546875 43.195313 55.746094 41.378906 L 43.402344 35.472656 C 44.050781 34.265625 44.601563 33.003906 45.015625 31.734375 C 46.242188 31.273438 47.363281 29.773438 47.898438 27.777344 C 48.214844 26.597656 48.277344 25.410156 48.078125 24.433594 C 47.832031 23.21875 47.199219 22.417969 46.300781 22.171875 C 49.738281 21.085938 52 19.523438 52 17.5 C 52 15.265625 49.234375 13.589844 45.171875 12.5 L 43.730469 4.796875 C 43.480469 3.472656 42.730469 2.328125 41.613281 1.570313 C 40.496094 0.816406 39.15625 0.546875 37.832031 0.8125 L 35.726563 1.234375 C 33.253906 1.726563 30.746094 1.726563 28.277344 1.234375 L 26.167969 0.8125 C 25.835938 0.746094 25.503906 0.714844 25.175781 0.714844 Z M 25.179688 2.714844 C 25.378906 2.714844 25.578125 2.734375 25.777344 2.773438 L 27.882813 3.195313 C 30.613281 3.742188 33.386719 3.742188 36.121094 3.195313 L 38.226563 2.773438 C 39.019531 2.613281 39.824219 2.777344 40.496094 3.230469 C 41.164063 3.683594 41.617188 4.367188 41.765625 5.164063 L 43.855469 16.296875 C 36.097656 18.523438 27.957031 18.53125 20.152344 16.296875 L 20.496094 14.441406 C 24.257813 15.4375 28.101563 15.964844 31.980469 15.964844 C 33.09375 15.964844 34.210938 15.921875 35.328125 15.839844 C 35.882813 15.800781 36.292969 15.320313 36.253906 14.769531 C 36.214844 14.21875 35.738281 13.800781 35.183594 13.84375 C 30.351563 14.203125 25.535156 13.742188 20.863281 12.484375 L 22.234375 5.164063 C 22.386719 4.367188 22.835938 3.683594 23.507813 3.230469 C 24.007813 2.890625 24.585938 2.714844 25.179688 2.714844 Z M 40.535156 13.109375 C 39.824219 13.25 39.113281 13.378906 38.402344 13.484375 C 37.851563 13.566406 37.480469 14.078125 37.5625 14.625 C 37.636719 15.117188 38.0625 15.472656 38.550781 15.472656 C 38.601563 15.472656 38.648438 15.472656 38.699219 15.464844 C 39.445313 15.351563 40.191406 15.21875 40.933594 15.066406 C 41.472656 14.960938 41.824219 14.429688 41.714844 13.890625 C 41.605469 13.347656 41.082031 13.003906 40.535156 13.109375 Z M 45.585938 14.710938 C 48.410156 15.582031 50 16.632813 50 17.5 C 50 19.335938 42.988281 22 32 22 C 21.011719 22 14 19.335938 14 17.5 C 14 16.632813 15.589844 15.582031 18.410156 14.714844 L 18.015625 16.816406 C 17.921875 17.316406 18.28125 17.824219 18.765625 17.972656 C 23.09375 19.308594 27.546875 19.972656 32 19.972656 C 36.449219 19.972656 40.902344 19.304688 45.230469 17.972656 L 45.292969 17.953125 C 45.777344 17.804688 46.074219 17.3125 45.980469 16.8125 Z M 43.921875 22.8125 C 43.941406 23.011719 43.960938 23.210938 43.96875 23.433594 C 43.988281 23.789063 44.195313 24.113281 44.515625 24.277344 C 44.832031 24.4375 45.210938 24.417969 45.515625 24.222656 C 45.691406 24.109375 45.78125 24.101563 45.777344 24.101563 C 45.8125 24.113281 46.007813 24.277344 46.121094 24.832031 C 46.257813 25.503906 46.199219 26.386719 45.96875 27.257813 C 45.472656 29.101563 44.53125 29.878906 44.234375 29.878906 C 43.792969 29.878906 43.402344 30.171875 43.277344 30.59375 C 41.589844 36.265625 37.175781 42 32 42 C 26.824219 42 22.410156 36.261719 20.726563 30.59375 C 20.597656 30.171875 20.210938 29.878906 19.765625 29.878906 C 19.472656 29.878906 18.527344 29.101563 18.035156 27.257813 C 17.800781 26.386719 17.746094 25.503906 17.882813 24.832031 C 17.996094 24.273438 18.191406 24.109375 18.214844 24.105469 C 18.21875 24.105469 18.304688 24.105469 18.484375 24.222656 C 18.789063 24.421875 19.171875 24.4375 19.488281 24.277344 C 19.808594 24.113281 20.015625 23.792969 20.03125 23.433594 C 20.042969 23.222656 20.078125 23.023438 20.097656 22.816406 C 23.574219 23.597656 27.796875 24 32 24 C 36.210938 24 40.441406 23.597656 43.921875 22.8125 Z M 20.242188 37.859375 L 27.941406 60 L 25.5 60 L 17.25 49 L 19.800781 45.597656 C 19.960938 45.386719 20.027344 45.121094 19.988281 44.859375 L 19.070313 38.421875 Z M 43.757813 37.863281 L 44.929688 38.421875 L 44.011719 44.859375 C 43.972656 45.121094 44.039063 45.386719 44.199219 45.601563 L 46.730469 48.972656 L 38.222656 59.367188 C 38.074219 59.550781 38.015625 59.777344 38.015625 60 L 36.058594 60 Z M 22.605469 38.5625 C 25.074219 41.730469 28.355469 44 32 44 C 35.644531 44 38.929688 41.730469 41.398438 38.5625 L 34.058594 59.671875 C 34.019531 59.78125 34.011719 59.890625 34.011719 60 L 29.988281 60 C 29.988281 59.890625 29.984375 59.78125 29.945313 59.671875 Z M 17.179688 39.328125 L 17.953125 44.730469 L 15.199219 48.402344 C 14.933594 48.753906 14.933594 49.246094 15.199219 49.597656 L 23 60 L 5 60 C 4.449219 60 4 59.550781 4 59 L 4 51.300781 C 4 47.855469 6.007813 44.667969 9.117188 43.183594 Z M 46.820313 39.328125 L 54.882813 43.183594 C 57.992188 44.667969 60 47.855469 60 51.300781 L 60 59 C 60 59.550781 59.550781 60 59 60 L 40.292969 60 L 48.773438 49.632813 C 49.0625 49.277344 49.074219 48.769531 48.796875 48.402344 L 46.046875 44.734375 Z M 7 54 C 6.445313 54 6 54.449219 6 55 L 6 57 C 6 57.550781 6.445313 58 7 58 C 7.554688 58 8 57.550781 8 57 L 8 55 C 8 54.449219 7.554688 54 7 54 Z M 12 54 C 11.445313 54 11 54.449219 11 55 L 11 57 C 11 57.550781 11.445313 58 12 58 C 12.554688 58 13 57.550781 13 57 L 13 55 C 13 54.449219 12.554688 54 12 54 Z M 17 54 C 16.445313 54 16 54.449219 16 55 L 16 57 C 16 57.550781 16.445313 58 17 58 C 17.554688 58 18 57.550781 18 57 L 18 55 C 18 54.449219 17.554688 54 17 54 Z M 47 54 C 46.445313 54 46 54.449219 46 55 L 46 57 C 46 57.550781 46.445313 58 47 58 C 47.554688 58 48 57.550781 48 57 L 48 55 C 48 54.449219 47.554688 54 47 54 Z M 52 54 C 51.445313 54 51 54.449219 51 55 L 51 57 C 51 57.550781 51.445313 58 52 58 C 52.554688 58 53 57.550781 53 57 L 53 55 C 53 54.449219 52.554688 54 52 54 Z M 57 54 C 56.445313 54 56 54.449219 56 55 L 56 57 C 56 57.550781 56.445313 58 57 58 C 57.554688 58 58 57.550781 58 57 L 58 55 C 58 54.449219 57.554688 54 57 54 Z"/></svg>