<?xml version="1.0" standalone="no"?>
<!DOCTYPE svg PUBLIC "-//W3C//DTD SVG 20010904//EN"
 "http://www.w3.org/TR/2001/REC-SVG-20010904/DTD/svg10.dtd">
<svg version="1.0" xmlns="http://www.w3.org/2000/svg"
 width="800.000000pt" height="800.000000pt" viewBox="0 0 800.000000 800.000000"
 preserveAspectRatio="xMidYMid meet">
<metadata>
Created by potrace 1.14, written by Peter Selinger 2001-2017
</metadata>
<g transform="translate(0.000000,800.000000) scale(0.100000,-0.100000)"
fill="#000000" stroke="none">
<path d="M3705 7754 c-16 -2 -77 -9 -135 -15 -243 -25 -520 -88 -778 -174
-892 -301 -1648 -937 -2101 -1770 -217 -399 -357 -832 -428 -1325 -25 -180
-25 -760 0 -940 124 -867 482 -1596 1077 -2190 594 -595 1323 -953 2190 -1077
180 -25 760 -25 940 0 869 124 1594 481 2190 1077 596 596 953 1321 1077 2190
25 180 25 760 0 940 -124 867 -482 1596 -1077 2190 -593 593 -1323 953 -2185
1076 -104 15 -691 29 -770 18z m1817 -1505 c634 -446 1161 -818 1171 -827 16
-14 17 -44 17 -354 0 -243 -3 -338 -11 -338 -6 0 -394 261 -862 580 -467 318
-854 577 -859 574 -13 -8 -10 -3744 3 -3744 6 0 256 167 555 372 l544 372 0
318 0 318 -355 0 -355 0 0 335 0 335 663 -2 662 -3 5 -795 c5 -785 5 -795 -15
-816 -20 -21 -2320 -1614 -2330 -1614 -7 0 -6 5952 2 6033 3 37 7 67 9 67 2 0
522 -365 1156 -811z m-3562 -1861 l1 -1473 547 -358 547 -358 3 491 2 490 312
0 311 0 -6 -1111 c-3 -611 -8 -1113 -11 -1116 -2 -2 -528 363 -1169 812
l-1164 817 -5 1417 c-3 779 -3 1421 1 1428 7 13 611 431 624 432 4 1 7 -662 7
-1471z"/>
</g>
</svg>
